<svg xmlns="http://www.w3.org/2000/svg" viewBox="0 0 1200 760"><rect width="1200" height="760" fill="#eaf1e8"/><rect x="86" y="70" width="1028" height="620" rx="32" fill="#fff"/><rect x="86" y="70" width="1028" height="64" rx="32" fill="#113729"/><circle cx="132" cy="102" r="8" fill="#f6f7f4"/><circle cx="162" cy="102" r="8" fill="#70a46f"/><circle cx="192" cy="102" r="8" fill="#c7dbc2"/><text x="145" y="260" font-family="Arial,sans-serif" font-size="70" font-weight="800" fill="#113729">NUTRI</text><text x="145" y="330" font-family="Arial,sans-serif" font-size="42" font-weight="700" fill="#5b8c57">ORGÁNICOS DEL CAMPO</text><rect x="145" y="390" width="400" height="18" rx="9" fill="#b8cbb4"/><rect x="145" y="432" width="320" height="18" rx="9" fill="#d9e4d5"/><circle cx="825" cy="385" r="150" fill="#dcead8"/><path d="M824 505c0-132 40-226 128-280-7 124-50 210-128 280Z" fill="#5b8c57"/><path d="M818 500c-9-118-67-197-170-236 26 118 81 197 170 236Z" fill="#7fa879"/><path d="M823 505c0-96-1-192-2-286" stroke="#113729" stroke-width="14" stroke-linecap="round"/></svg>